<svg xmlns="http://www.w3.org/2000/svg" viewBox="0 0 520.33 98.07"><defs><style>.cls-1{fill:#fff;}.cls-2{fill:#17bebb;}</style></defs><g id="Layer_2" data-name="Layer 2"><g id="Layer_1-2" data-name="Layer 1"><path class="cls-1" d="M0,84.54,15.54,67.37c7.29,5.39,16.49,9.17,24.1,9.17,8.24,0,11.73-2.47,11.73-6.69,0-4.51-5.23-6-13.95-9.17l-12.85-5C13.48,51.66,3.81,43.07,3.81,29.39,3.81,13.24,19.66,0,42.17,0,53.91,0,66.91,4.07,76.42,12.66L62.78,28.37c-7-4.51-13-6.83-20.61-6.83-6.66,0-10.78,2.18-10.78,6.4,0,4.51,5.87,6.11,15.22,9.46l12.53,4.51C72,46.56,79.27,54.71,79.27,67.81c0,16-14.58,30.26-40.27,30.26C26,98.07,11.1,93.71,0,84.54Z"/><path class="cls-1" d="M95.76,1.75h39C157,1.75,176,8.73,176,32.3c0,13.54-6.66,22.41-16.65,27.36L181.7,96.33H151.25L133.5,64.61H123V96.33H95.76Zm37.1,43.07c10.78,0,16.49-4.37,16.49-12.52s-5.71-10.76-16.49-10.76H123V44.82Z"/><path class="cls-1" d="M195.65,1.75h27.27V96.33H195.65Z"/><path class="cls-1" d="M345.58,50.64V1.75h27.27v51.8c0,16.88,4.76,23,15.54,23s15.85-6.11,15.85-23V1.75h26.32V50.64c0,32.3-13.32,47.43-42.17,47.43S345.58,82.94,345.58,50.64Z"/><path class="cls-1" d="M441.05,84.54l15.54-17.17c7.29,5.39,16.49,9.17,24.1,9.17,8.24,0,11.73-2.47,11.73-6.69,0-4.51-5.23-6-13.95-9.17l-12.84-5c-11.1-4.07-20.77-12.66-20.77-26.34C444.86,13.24,460.71,0,483.23,0,495,0,508,4.07,517.47,12.66L503.84,28.37c-7-4.51-13-6.83-20.61-6.83-6.66,0-10.78,2.18-10.78,6.4,0,4.51,5.86,6.11,15.22,9.46l12.52,4.51c12.84,4.65,20.14,12.8,20.14,25.9,0,16-14.59,30.26-40.27,30.26C467.05,98.07,452.15,93.71,441.05,84.54Z"/><path class="cls-1" d="M309.12,65,297.51,80.74a2.07,2.07,0,0,0,0,2.49l9.61,13.3a2.69,2.69,0,0,0,2.18,1.06h23.38c2,0,3.29-2,2.17-3.55L313.46,65A2.79,2.79,0,0,0,309.12,65Z"/><path class="cls-2" d="M272.64,10.7h0l-6.17-8.44a2.67,2.67,0,0,0-2.17-1h-23.5c-2.06,0-3.3,2-2.16,3.55l30.4,40.84a2.07,2.07,0,0,1,0,2.52L235.77,93c-1.14,1.52.1,3.55,2.16,3.55H261a2.69,2.69,0,0,0,2.14-1L298.54,49a2.07,2.07,0,0,0,0-2.52Z"/><path class="cls-1" d="M305.25,2.26,298.17,12a2.07,2.07,0,0,0,0,2.48l10.87,15a2.78,2.78,0,0,0,4.33,0l18.8-24.7c1.16-1.52-.07-3.57-2.15-3.57H307.43A2.68,2.68,0,0,0,305.25,2.26Z"/></g></g></svg>